<svg id="Capa_1" enable-background="new 0 0 512 512" height="512" viewBox="0 0 512 512" width="512" xmlns="http://www.w3.org/2000/svg"><g><path d="m154.922 0c-86.06.122-156.015 71.315-154.691 157.365.713 46.325 21.763 87.713 54.611 115.643 1.62 1.378 2.541 3.401 2.566 5.528.15 12.577.036 29.283-.713 50.585-.206 5.854 6.202 9.591 11.178 6.5 9.956-6.186 24.585-16.423 37.067-29.736 1.879-2.003 4.714-2.789 7.353-2.031 13.654 3.924 28.078 6.026 42.997 6.012 86.159-.079 156.655-72.287 154.75-158.425-1.858-84.028-70.616-151.56-155.118-151.441z" fill="#fece85"/><path d="m155.293 309.864c-14.926.021-29.349-2.084-43.003-6.005-2.638-.76-5.472.021-7.35 2.022-12.483 13.315-27.112 23.55-37.069 29.74-4.979 3.09-11.385-.647-11.179-6.498.298-8.449.493-16.168.616-23.2 9.65-6.293 22.266-15.604 33.22-27.296 1.879-2.002 4.712-2.782 7.35-2.033 13.653 3.932 28.077 6.026 42.993 6.016 86.159-.082 156.653-72.29 154.754-158.429-.431-19.371-4.414-37.859-11.323-54.849 15.686 23.621 25.069 51.801 25.736 82.115 1.909 86.137-68.585 158.345-154.745 158.417z" fill="#fec165"/><path d="m76.087 117.29c6.14-18.616 21.805-30.842 41.631-30.842 16.826 0 31.262 10.23 37.428 24.809 6.166-14.579 20.602-24.809 37.428-24.809 19.825 0 35.49 12.226 41.631 30.842 16.945 51.373-40.026 86.222-79.059 106.129-39.034-19.907-96.004-54.757-79.059-106.129z" fill="#fe93bb"/><path d="m155.15 223.417c-6.211-3.162-12.883-6.714-19.628-10.645 38.989-19.998 94.69-54.675 77.906-105.541-2.659-8.048-7.093-14.906-12.873-20.09 16.004 2.813 28.364 14.105 33.651 30.15 16.948 51.369-40.027 86.221-79.056 106.126z" fill="#fe76a8"/><path d="m511.785 330.201c0-85.567-69.365-154.932-154.931-154.933-85.487-.001-154.935 69.446-154.935 154.933 0 85.567 69.366 154.933 154.933 154.933 14.873 0 29.253-2.103 42.867-6.017 2.634-.757 5.464.035 7.338 2.035 12.482 13.313 27.111 23.55 37.068 29.736 4.976 3.092 11.384-.645 11.178-6.5-.75-21.335-.863-38.058-.712-50.642.026-2.144 1.007-4.144 2.639-5.534 33.378-28.417 54.555-70.739 54.555-118.011z" fill="#99e6fc"/><path d="m511.787 330.2c0 47.273-21.178 89.598-54.562 118.013-1.632 1.386-2.607 3.388-2.638 5.533-.144 12.586-.031 29.308.719 50.64.206 5.851-6.2 9.588-11.179 6.498-3.285-2.033-7.073-4.517-11.128-7.401.493-1.027.76-2.197.719-3.47-.749-21.342-.862-38.065-.719-50.651.031-2.135 1.006-4.137 2.649-5.533 33.374-28.415 54.552-70.74 54.552-118.003 0-71.131-47.92-131.051-113.23-149.262 76.067 9.866 134.817 74.888 134.817 153.636z" fill="#62dbfb"/><path d="m435.911 292.557c-6.14-18.616-21.805-30.842-41.631-30.842-16.826 0-31.262 10.23-37.428 24.809-6.166-14.579-20.602-24.809-37.428-24.809-19.825 0-35.49 12.226-41.631 30.842-16.945 51.373 40.026 86.222 79.059 106.129 39.033-19.907 96.004-54.756 79.059-106.129z" fill="#fe93bb"/><path d="m356.848 398.682c-6.211-3.172-12.873-6.714-19.628-10.645 38.999-19.997 94.69-54.675 77.916-105.541-2.659-8.048-7.094-14.895-12.863-20.08 16.004 2.823 28.354 14.115 33.64 30.14 16.939 51.369-40.024 86.221-79.065 106.126z" fill="#fe76a8"/></g></svg>