<svg id="Capa_1" enable-background="new 0 0 512 512" height="512" viewBox="0 0 512 512" width="512" xmlns="http://www.w3.org/2000/svg"><path d="m361 209.868c-57.463 0-107.527 32.282-133.038 79.667l-52.209-27.514c9.798-24.981 8.13-53.581-5.364-77.604l81.115-59.026c45.997 38.695 116.625 5.725 116.625-54.364 0-39.165-31.851-71.027-71-71.027-52.56 0-86.433 55.059-64.036 101.686l-81.511 59.315c-58.372-52.2-151.582-10.463-151.582 67.869 0 50.198 40.822 91.037 91 91.037 27.733 0 52.603-12.479 69.308-32.114l56.105 29.567c-29.247 96.95 43.773 194.64 144.587 194.64 83.262 0 151-67.768 151-151.066s-67.738-151.066-151-151.066zm-63.872-179.868c22.607 0 41 18.405 41 41.027s-18.393 41.027-41 41.027-41-18.405-41-41.027 18.393-41.027 41-41.027zm-206.128 259.907c-33.636 0-61-27.381-61-61.037s27.364-61.037 61-61.037 61 27.381 61 61.037-27.364 61.037-61 61.037zm270-50.039c97.684 0 154.202 109.94 99.905 189.288-8.481-18.373-22.011-34.2-39.156-45.625 30.372-47.657-3.984-110.648-60.749-110.648-56.319 0-90.689 62.06-61.354 109.705-17.235 11.064-30.939 26.572-39.728 44.812-52.611-79.831 4.681-187.532 101.082-187.532zm-42.012 105.054c0-23.181 18.847-42.039 42.012-42.039s42.012 18.859 42.012 42.039-18.847 42.04-42.012 42.04-42.012-18.859-42.012-42.04zm-36.77 107.824c5.97-20.484 19.882-37.683 38.779-47.956 23.812 15.976 54.887 16.291 79.068.602 18.546 10.485 32.429 27.892 38.097 48.725-45.378 37.682-111.18 37.137-155.944-1.371z"/></svg>